<?xml version="1.0" encoding="UTF-8"?>
<svg xmlns="http://www.w3.org/2000/svg" width="64" height="64" viewBox="0 0 64 64" role="img" aria-label="facet logo">
  <rect width="64" height="64" rx="12" fill="#0ea5a4" />
  <!-- Higher-contrast Playfair-like 'f' path. Designed to read clearly at small sizes. -->
  <!-- Path was adjusted visually to increase terminal thickness and distinctive terminal hooks. -->
  <path fill="#ffffff" d="M40.8 14.6c-2.6-.2-5.6.7-7.5 2.6-1.9 1.9-2.6 4.6-2.2 7.2.4 2.7 2.2 4.6 4.7 5.4 1.6.5 3.3.6 4.9.6h1.2v4.1c0 1.1-.8 1.9-2 1.9-1.1 0-2-.7-2.7-1.4l-2 3.4c1.6 1.1 3.6 1.8 5.8 1.9 3.6.1 6.6-1.3 8.7-3.9 2.1-2.6 2.6-5.9 1.8-9.1-.9-3.7-4.6-6.3-8.9-6.6h-1.3c0-1.6.3-3.3 1.1-4.6 1.4-2.1 3.7-3.6 6.3-3.8 1.2-.1 2.5.1 3.6.7l.9-2.6c-1.6-.8-3.5-1.2-5.5-1.2-3.6 0-6.7 1.8-8.6 4.7-.9 1.5-1.4 3.2-1.5 5.1h-.1z"/>
</svg>